{
    "asset": {
        "generator": "Khronos glTF Blender I/O v3.4.50",
        "version": "2.0"
    },
    "scene": 0,
    "scenes": [
        {
            "name": "Scene",
            "nodes": [
                0
            ]
        }
    ],
    "nodes": [
        {
            "mesh": 0,
            "name": "floor_net_2x2x1_blue"
        }
    ],
    "materials": [
        {
            "name": "platformer",
            "pbrMetallicRoughness": {
                "baseColorTexture": {
                    "index": 0
                },
                "metallicFactor": 0,
                "roughnessFactor": 0.30000001192092896
            }
        }
    ],
    "meshes": [
        {
            "name": "floor_net_2x2x1_blue",
            "primitives": [
                {
                    "attributes": {
                        "POSITION": 0,
                        "TEXCOORD_0": 1,
                        "NORMAL": 2
                    },
                    "indices": 3,
                    "material": 0
                }
            ]
        }
    ],
    "textures": [
        {
            "sampler": 0,
            "source": 0
        }
    ],
    "images": [
        {
            "mimeType": "image/png",
            "name": "platformer_texture",
            "uri": "../textures/platformer_texture_blue.png"
        }
    ],
    "accessors": [
        {
            "bufferView": 0,
            "componentType": 5126,
            "count": 696,
            "max": [
                1,
                1,
                1.000000238418579
            ],
            "min": [
                -1,
                0.6810922026634216,
                -0.9999998807907104
            ],
            "type": "VEC3"
        },
        {
            "bufferView": 1,
            "componentType": 5126,
            "count": 696,
            "type": "VEC2"
        },
        {
            "bufferView": 2,
            "componentType": 5126,
            "count": 696,
            "type": "VEC3"
        },
        {
            "bufferView": 3,
            "componentType": 5123,
            "count": 1728,
            "type": "SCALAR"
        }
    ],
    "bufferViews": [
        {
            "buffer": 0,
            "byteLength": 8352,
            "byteOffset": 0,
            "target": 34962
        },
        {
            "buffer": 0,
            "byteLength": 5568,
            "byteOffset": 8352,
            "target": 34962
        },
        {
            "buffer": 0,
            "byteLength": 8352,
            "byteOffset": 13920,
            "target": 34962
        },
        {
            "buffer": 0,
            "byteLength": 3456,
            "byteOffset": 22272,
            "target": 34963
        }
    ],
    "samplers": [
        {
            "magFilter": 9729,
            "minFilter": 9987
        }
    ],
    "buffers": [
        {
            "byteLength": 25728,
            "uri": "floor_net_2x2x1_blue.bin"
        }
    ]
}