{
    "asset": {
        "generator": "Khronos glTF Blender I/O v3.4.50",
        "version": "2.0"
    },
    "scene": 0,
    "scenes": [
        {
            "name": "Scene",
            "nodes": [
                1
            ]
        }
    ],
    "nodes": [
        {
            "mesh": 0,
            "name": "floor_spikes_trap_spikes_4x4x1_blue"
        },
        {
            "children": [
                0
            ],
            "mesh": 1,
            "name": "floor_spikes_trap_4x4x1_blue"
        }
    ],
    "materials": [
        {
            "name": "platformer",
            "pbrMetallicRoughness": {
                "baseColorTexture": {
                    "index": 0
                },
                "metallicFactor": 0,
                "roughnessFactor": 0.30000001192092896
            }
        }
    ],
    "meshes": [
        {
            "name": "floor_spikes_trap_spikes_4x4x1_blue",
            "primitives": [
                {
                    "attributes": {
                        "POSITION": 0,
                        "TEXCOORD_0": 1,
                        "NORMAL": 2
                    },
                    "indices": 3,
                    "material": 0
                }
            ]
        },
        {
            "name": "floor_spikes_trap_4x4x1_blue",
            "primitives": [
                {
                    "attributes": {
                        "POSITION": 4,
                        "TEXCOORD_0": 5,
                        "NORMAL": 6
                    },
                    "indices": 7,
                    "material": 0
                }
            ]
        }
    ],
    "textures": [
        {
            "sampler": 0,
            "source": 0
        }
    ],
    "images": [
        {
            "mimeType": "image/png",
            "name": "platformer_texture",
            "uri": "../textures/platformer_texture_blue.png"
        }
    ],
    "accessors": [
        {
            "bufferView": 0,
            "componentType": 5126,
            "count": 648,
            "max": [
                2,
                1.5,
                2
            ],
            "min": [
                -2,
                0,
                -2
            ],
            "type": "VEC3"
        },
        {
            "bufferView": 1,
            "componentType": 5126,
            "count": 648,
            "type": "VEC2"
        },
        {
            "bufferView": 2,
            "componentType": 5126,
            "count": 648,
            "type": "VEC3"
        },
        {
            "bufferView": 3,
            "componentType": 5123,
            "count": 720,
            "type": "SCALAR"
        },
        {
            "bufferView": 4,
            "componentType": 5126,
            "count": 1112,
            "max": [
                2,
                1,
                2
            ],
            "min": [
                -2,
                0.5,
                -2
            ],
            "type": "VEC3"
        },
        {
            "bufferView": 5,
            "componentType": 5126,
            "count": 1112,
            "type": "VEC2"
        },
        {
            "bufferView": 6,
            "componentType": 5126,
            "count": 1112,
            "type": "VEC3"
        },
        {
            "bufferView": 7,
            "componentType": 5123,
            "count": 2610,
            "type": "SCALAR"
        }
    ],
    "bufferViews": [
        {
            "buffer": 0,
            "byteLength": 7776,
            "byteOffset": 0,
            "target": 34962
        },
        {
            "buffer": 0,
            "byteLength": 5184,
            "byteOffset": 7776,
            "target": 34962
        },
        {
            "buffer": 0,
            "byteLength": 7776,
            "byteOffset": 12960,
            "target": 34962
        },
        {
            "buffer": 0,
            "byteLength": 1440,
            "byteOffset": 20736,
            "target": 34963
        },
        {
            "buffer": 0,
            "byteLength": 13344,
            "byteOffset": 22176,
            "target": 34962
        },
        {
            "buffer": 0,
            "byteLength": 8896,
            "byteOffset": 35520,
            "target": 34962
        },
        {
            "buffer": 0,
            "byteLength": 13344,
            "byteOffset": 44416,
            "target": 34962
        },
        {
            "buffer": 0,
            "byteLength": 5220,
            "byteOffset": 57760,
            "target": 34963
        }
    ],
    "samplers": [
        {
            "magFilter": 9729,
            "minFilter": 9987
        }
    ],
    "buffers": [
        {
            "byteLength": 62980,
            "uri": "floor_spikes_trap_4x4x1_blue.bin"
        }
    ]
}