{
    "asset": {
        "generator": "Khronos glTF Blender I/O v3.4.50",
        "version": "2.0"
    },
    "scene": 0,
    "scenes": [
        {
            "name": "Scene",
            "nodes": [
                0
            ]
        }
    ],
    "nodes": [
        {
            "mesh": 0,
            "name": "safetynet_6x2x1_red"
        }
    ],
    "materials": [
        {
            "name": "platformer",
            "pbrMetallicRoughness": {
                "baseColorTexture": {
                    "index": 0
                },
                "metallicFactor": 0,
                "roughnessFactor": 0.30000001192092896
            }
        }
    ],
    "meshes": [
        {
            "name": "safetynet_6x2x1_red",
            "primitives": [
                {
                    "attributes": {
                        "POSITION": 0,
                        "TEXCOORD_0": 1,
                        "NORMAL": 2
                    },
                    "indices": 3,
                    "material": 0
                }
            ]
        }
    ],
    "textures": [
        {
            "sampler": 0,
            "source": 0
        }
    ],
    "images": [
        {
            "mimeType": "image/png",
            "name": "platformer_texture",
            "uri": "../textures/platformer_texture_red.png"
        }
    ],
    "accessors": [
        {
            "bufferView": 0,
            "componentType": 5126,
            "count": 1045,
            "max": [
                3,
                1,
                1
            ],
            "min": [
                -3,
                0,
                -1
            ],
            "type": "VEC3"
        },
        {
            "bufferView": 1,
            "componentType": 5126,
            "count": 1045,
            "type": "VEC2"
        },
        {
            "bufferView": 2,
            "componentType": 5126,
            "count": 1045,
            "type": "VEC3"
        },
        {
            "bufferView": 3,
            "componentType": 5123,
            "count": 2712,
            "type": "SCALAR"
        }
    ],
    "bufferViews": [
        {
            "buffer": 0,
            "byteLength": 12540,
            "byteOffset": 0,
            "target": 34962
        },
        {
            "buffer": 0,
            "byteLength": 8360,
            "byteOffset": 12540,
            "target": 34962
        },
        {
            "buffer": 0,
            "byteLength": 12540,
            "byteOffset": 20900,
            "target": 34962
        },
        {
            "buffer": 0,
            "byteLength": 5424,
            "byteOffset": 33440,
            "target": 34963
        }
    ],
    "samplers": [
        {
            "magFilter": 9729,
            "minFilter": 9987
        }
    ],
    "buffers": [
        {
            "byteLength": 38864,
            "uri": "safetynet_6x2x1_red.bin"
        }
    ]
}