{
    "asset": {
        "generator": "Khronos glTF Blender I/O v3.4.50",
        "version": "2.0"
    },
    "scene": 0,
    "scenes": [
        {
            "name": "Scene",
            "nodes": [
                1
            ]
        }
    ],
    "nodes": [
        {
            "mesh": 0,
            "name": "floor_spikes_trap_spikes_2x2x1_yellow"
        },
        {
            "children": [
                0
            ],
            "mesh": 1,
            "name": "floor_spikes_trap_2x2x1_yellow"
        }
    ],
    "materials": [
        {
            "name": "platformer",
            "pbrMetallicRoughness": {
                "baseColorTexture": {
                    "index": 0
                },
                "metallicFactor": 0,
                "roughnessFactor": 0.30000001192092896
            }
        }
    ],
    "meshes": [
        {
            "name": "floor_spikes_trap_spikes_2x2x1_yellow",
            "primitives": [
                {
                    "attributes": {
                        "POSITION": 0,
                        "TEXCOORD_0": 1,
                        "NORMAL": 2
                    },
                    "indices": 3,
                    "material": 0
                }
            ]
        },
        {
            "name": "floor_spikes_trap_2x2x1_yellow",
            "primitives": [
                {
                    "attributes": {
                        "POSITION": 4,
                        "TEXCOORD_0": 5,
                        "NORMAL": 6
                    },
                    "indices": 7,
                    "material": 0
                }
            ]
        }
    ],
    "textures": [
        {
            "sampler": 0,
            "source": 0
        }
    ],
    "images": [
        {
            "mimeType": "image/png",
            "name": "platformer_texture",
            "uri": "../textures/platformer_texture_yellow.png"
        }
    ],
    "accessors": [
        {
            "bufferView": 0,
            "componentType": 5126,
            "count": 172,
            "max": [
                1,
                1.5,
                1
            ],
            "min": [
                -1,
                0,
                -1
            ],
            "type": "VEC3"
        },
        {
            "bufferView": 1,
            "componentType": 5126,
            "count": 172,
            "type": "VEC2"
        },
        {
            "bufferView": 2,
            "componentType": 5126,
            "count": 172,
            "type": "VEC3"
        },
        {
            "bufferView": 3,
            "componentType": 5123,
            "count": 240,
            "type": "SCALAR"
        },
        {
            "bufferView": 4,
            "componentType": 5126,
            "count": 368,
            "max": [
                1,
                1,
                1
            ],
            "min": [
                -1,
                0.5,
                -1
            ],
            "type": "VEC3"
        },
        {
            "bufferView": 5,
            "componentType": 5126,
            "count": 368,
            "type": "VEC2"
        },
        {
            "bufferView": 6,
            "componentType": 5126,
            "count": 368,
            "type": "VEC3"
        },
        {
            "bufferView": 7,
            "componentType": 5123,
            "count": 978,
            "type": "SCALAR"
        }
    ],
    "bufferViews": [
        {
            "buffer": 0,
            "byteLength": 2064,
            "byteOffset": 0,
            "target": 34962
        },
        {
            "buffer": 0,
            "byteLength": 1376,
            "byteOffset": 2064,
            "target": 34962
        },
        {
            "buffer": 0,
            "byteLength": 2064,
            "byteOffset": 3440,
            "target": 34962
        },
        {
            "buffer": 0,
            "byteLength": 480,
            "byteOffset": 5504,
            "target": 34963
        },
        {
            "buffer": 0,
            "byteLength": 4416,
            "byteOffset": 5984,
            "target": 34962
        },
        {
            "buffer": 0,
            "byteLength": 2944,
            "byteOffset": 10400,
            "target": 34962
        },
        {
            "buffer": 0,
            "byteLength": 4416,
            "byteOffset": 13344,
            "target": 34962
        },
        {
            "buffer": 0,
            "byteLength": 1956,
            "byteOffset": 17760,
            "target": 34963
        }
    ],
    "samplers": [
        {
            "magFilter": 9729,
            "minFilter": 9987
        }
    ],
    "buffers": [
        {
            "byteLength": 19716,
            "uri": "floor_spikes_trap_2x2x1_yellow.bin"
        }
    ]
}