{
    "asset": {
        "generator": "Khronos glTF Blender I/O v3.4.50",
        "version": "2.0"
    },
    "scene": 0,
    "scenes": [
        {
            "name": "Scene",
            "nodes": [
                0
            ]
        }
    ],
    "nodes": [
        {
            "mesh": 0,
            "name": "swiper_double_long_yellow"
        }
    ],
    "materials": [
        {
            "name": "platformer",
            "pbrMetallicRoughness": {
                "baseColorTexture": {
                    "index": 0
                },
                "metallicFactor": 0,
                "roughnessFactor": 0.30000001192092896
            }
        }
    ],
    "meshes": [
        {
            "name": "swiper_double_long_yellow",
            "primitives": [
                {
                    "attributes": {
                        "POSITION": 0,
                        "TEXCOORD_0": 1,
                        "NORMAL": 2
                    },
                    "indices": 3,
                    "material": 0
                }
            ]
        }
    ],
    "textures": [
        {
            "sampler": 0,
            "source": 0
        }
    ],
    "images": [
        {
            "mimeType": "image/png",
            "name": "platformer_texture",
            "uri": "../textures/platformer_texture_yellow.png"
        }
    ],
    "accessors": [
        {
            "bufferView": 0,
            "componentType": 5126,
            "count": 2773,
            "max": [
                4.5,
                1.500000238418579,
                0.5000022053718567
            ],
            "min": [
                -4.5,
                0,
                -0.5000008344650269
            ],
            "type": "VEC3"
        },
        {
            "bufferView": 1,
            "componentType": 5126,
            "count": 2773,
            "type": "VEC2"
        },
        {
            "bufferView": 2,
            "componentType": 5126,
            "count": 2773,
            "type": "VEC3"
        },
        {
            "bufferView": 3,
            "componentType": 5123,
            "count": 7050,
            "type": "SCALAR"
        }
    ],
    "bufferViews": [
        {
            "buffer": 0,
            "byteLength": 33276,
            "byteOffset": 0,
            "target": 34962
        },
        {
            "buffer": 0,
            "byteLength": 22184,
            "byteOffset": 33276,
            "target": 34962
        },
        {
            "buffer": 0,
            "byteLength": 33276,
            "byteOffset": 55460,
            "target": 34962
        },
        {
            "buffer": 0,
            "byteLength": 14100,
            "byteOffset": 88736,
            "target": 34963
        }
    ],
    "samplers": [
        {
            "magFilter": 9729,
            "minFilter": 9987
        }
    ],
    "buffers": [
        {
            "byteLength": 102836,
            "uri": "swiper_double_long_yellow.bin"
        }
    ]
}