{
    "asset": {
        "generator": "Khronos glTF Blender I/O v3.4.50",
        "version": "2.0"
    },
    "scene": 0,
    "scenes": [
        {
            "name": "Scene",
            "nodes": [
                0
            ]
        }
    ],
    "nodes": [
        {
            "mesh": 0,
            "name": "swiper_quad_green"
        }
    ],
    "materials": [
        {
            "name": "platformer",
            "pbrMetallicRoughness": {
                "baseColorTexture": {
                    "index": 0
                },
                "metallicFactor": 0,
                "roughnessFactor": 0.30000001192092896
            }
        }
    ],
    "meshes": [
        {
            "name": "swiper_quad_green",
            "primitives": [
                {
                    "attributes": {
                        "POSITION": 0,
                        "TEXCOORD_0": 1,
                        "NORMAL": 2
                    },
                    "indices": 3,
                    "material": 0
                }
            ]
        }
    ],
    "textures": [
        {
            "sampler": 0,
            "source": 0
        }
    ],
    "images": [
        {
            "mimeType": "image/png",
            "name": "platformer_texture",
            "uri": "../textures/platformer_texture_green.png"
        }
    ],
    "accessors": [
        {
            "bufferView": 0,
            "componentType": 5126,
            "count": 3205,
            "max": [
                2.749999761581421,
                1.500000238418579,
                2.75
            ],
            "min": [
                -2.749999761581421,
                0,
                -2.749999761581421
            ],
            "type": "VEC3"
        },
        {
            "bufferView": 1,
            "componentType": 5126,
            "count": 3205,
            "type": "VEC2"
        },
        {
            "bufferView": 2,
            "componentType": 5126,
            "count": 3205,
            "type": "VEC3"
        },
        {
            "bufferView": 3,
            "componentType": 5123,
            "count": 8778,
            "type": "SCALAR"
        }
    ],
    "bufferViews": [
        {
            "buffer": 0,
            "byteLength": 38460,
            "byteOffset": 0,
            "target": 34962
        },
        {
            "buffer": 0,
            "byteLength": 25640,
            "byteOffset": 38460,
            "target": 34962
        },
        {
            "buffer": 0,
            "byteLength": 38460,
            "byteOffset": 64100,
            "target": 34962
        },
        {
            "buffer": 0,
            "byteLength": 17556,
            "byteOffset": 102560,
            "target": 34963
        }
    ],
    "samplers": [
        {
            "magFilter": 9729,
            "minFilter": 9987
        }
    ],
    "buffers": [
        {
            "byteLength": 120116,
            "uri": "swiper_quad_green.bin"
        }
    ]
}